<svg width="128" height="128" viewBox="0 0 128 128" fill="none" xmlns="http://www.w3.org/2000/svg">

<path d="M79.51 31.3554L79.585 31.5914C79.585 31.5914 79.5859 31.5932 79.5863 31.5945C79.5871 31.5969 79.5882 31.6006 79.5898 31.6055C79.593 31.6155 79.5977 31.6308 79.6042 31.6507C79.6173 31.6906 79.6368 31.7499 79.6624 31.8259C79.7135 31.9778 79.7888 32.1969 79.8847 32.4638C80.0769 32.9981 80.3512 33.7217 80.6801 34.4803C81.0099 35.2406 81.3907 36.0268 81.7943 36.6906C82.2076 37.3702 82.6092 37.8609 82.9595 38.0926C83.88 38.7014 85.2642 39.7795 86.4048 40.6934C86.9781 41.1528 87.4952 41.5747 87.8687 41.8818C88.0554 42.0353 88.2063 42.1603 88.3107 42.2468C88.3629 42.2902 88.4034 42.3241 88.431 42.347C88.4447 42.3585 88.4554 42.3673 88.4625 42.3732C88.466 42.3761 88.4688 42.3785 88.4706 42.38L88.4732 42.3821L88.6042 42.4911L88.6337 42.649L98 84.2455L91.4743 90L79.585 88.5293L51.9004 74.5356L34.5 68.7201L39.5257 41.7047L39.6239 41.6075L39.6243 41.607L39.6248 41.6061C39.6248 41.6061 39.6264 41.6048 39.6275 41.6037C39.6299 41.6013 39.6334 41.5976 39.638 41.5932C39.647 41.5842 39.6605 41.5712 39.678 41.554C39.713 41.5197 39.7647 41.4694 39.831 41.4051C39.9638 41.2766 40.1564 41.0921 40.3962 40.8665C40.8759 40.4152 41.546 39.7986 42.3089 39.1387C43.8198 37.8319 45.7443 36.3089 47.2744 35.5906C48.7669 34.8901 50.2032 34.4159 51.2654 34.1167C51.7972 33.9669 52.2371 33.8604 52.5451 33.7913C52.6576 33.766 52.7526 33.7459 52.8282 33.7303L59.0756 25L79.51 31.3554Z" fill="#C87100"/>
<path d="M60.4092 35.6061L56.2509 36.4036L44.7543 43.182L40.1067 52.1536L87.3161 89.2359L91.4745 79.0682L84.8701 63.7169L79.7333 64.9131L76.798 43.182L68.4813 35.6061L64.0784 38.796L60.4092 35.6061Z" fill="#B53503"/>
<path d="M77.2619 42.9652L80.1494 64.3436L85.1648 63.1761L92 79.0639L87.5273 90L39.5 52.275L44.3143 42.9817L44.3754 42.864L56.0655 35.9714L56.1529 35.9543L60.5578 35.1097L64.107 38.1952L68.5181 35L77.2619 42.9652ZM56.4353 36.8357L45.1332 43.4996L40.713 52.0319L87.1045 88.4713L90.9485 79.0724L84.5748 64.2576L79.3172 65.4823L76.3341 43.3989L68.4445 36.2117L64.0497 39.3962L60.2602 36.1021L56.4353 36.8357Z" fill="#B53503"/>
<path d="M34.4487 99.8927L24 84.9728L35.6223 52.2144L62.25 42.25C62.25 42.25 64.9406 44.0992 66.9261 49.3719C70.5575 59.0158 71.4871 64.0031 71.4871 64.0031C71.4871 64.0031 77.1377 70.0662 79.356 74.0392C81.5742 78.0123 84.4289 84.9728 84.4289 84.9728L97.25 75.25L101.5 85.373L87.7485 103.348L84.4289 104.653L55.0026 106.5L34.4487 99.8927Z" fill="#2B2727"/>
<path d="M34.4487 99.6783L24 84.7585L35.6223 52L36.75 69.75L44.5 81.7856L62.75 83.25L71.4871 63.7888C71.4871 63.7888 77.1377 69.8519 79.356 73.8249C81.5742 77.7979 84.4289 84.7585 84.4289 84.7585L97.25 75.0356L101.5 85.1587L87.7485 103.133L84.4289 104.438L55.0026 106.286L34.4487 99.6783Z" fill="#231F1F"/>
</svg>
