<svg width="256" height="256" viewBox="0 0 256 256" fill="none" xmlns="http://www.w3.org/2000/svg">
<rect width="256" height="256" fill="#0D0D0D"/>
<path d="M159.02 62.7108L159.17 63.1827C159.17 63.1827 159.172 63.1865 159.173 63.1889C159.174 63.1937 159.176 63.2012 159.18 63.2111C159.186 63.2311 159.195 63.2616 159.208 63.3014C159.235 63.3812 159.274 63.4998 159.325 63.6518C159.427 63.9557 159.578 64.3939 159.769 64.9275C160.154 65.9962 160.702 67.4434 161.36 68.9605C162.02 70.4812 162.781 72.0537 163.589 73.3811C164.415 74.7405 165.218 75.7218 165.919 76.1853C167.76 77.4029 170.528 79.559 172.81 81.3868C173.956 82.3056 174.99 83.1494 175.737 83.7636C176.111 84.0707 176.413 84.3205 176.621 84.4937C176.726 84.5803 176.807 84.6482 176.862 84.694C176.889 84.7169 176.911 84.7346 176.925 84.7464C176.932 84.7523 176.938 84.757 176.941 84.76L176.946 84.7642L177.208 84.9823L177.267 85.298L196 168.491L182.949 180L159.17 177.059L103.801 149.071L69 137.44L79.0513 83.4095L79.2478 83.2149L79.2487 83.214L79.2495 83.2121C79.2495 83.2121 79.2528 83.2095 79.255 83.2073C79.2598 83.2026 79.2668 83.1953 79.2759 83.1863C79.2941 83.1684 79.3211 83.1423 79.3561 83.1081C79.426 83.0395 79.5293 82.9387 79.6621 82.8102C79.9275 82.5533 80.3127 82.1842 80.7924 81.733C81.7518 80.8305 83.092 79.5973 84.6178 78.2775C87.6396 75.6638 91.4886 72.6178 94.5488 71.1813C97.5337 69.7801 100.406 68.8319 102.531 68.2334C103.594 67.9339 104.474 67.7208 105.09 67.5825C105.315 67.532 105.505 67.4918 105.656 67.4605L118.151 50L159.02 62.7108Z" fill="#EF8800"/>
<path d="M120.818 71.2122L112.502 72.8071L89.5086 86.3641L80.2135 104.307L174.632 178.472L182.949 158.136L169.74 127.434L159.467 129.826L153.596 86.3641L136.963 71.2122L128.157 77.5919L120.818 71.2122Z" fill="#E44404"/>
<path d="M154.524 85.9303L160.299 128.687L170.33 126.352L184 158.128L175.055 180L79 104.55L88.6286 85.9634L88.7509 85.728L112.131 71.9427L112.306 71.9087L121.116 70.2193L128.214 76.3904L137.036 70L154.524 85.9303ZM112.871 73.6715L90.2663 86.9992L81.426 104.064L174.209 176.943L181.897 158.145L169.15 128.515L158.634 130.965L152.668 86.7978L136.889 72.4235L128.099 78.7924L120.52 72.2041L112.871 73.6715Z" fill="#E44404"/>
<path d="M68.8974 199.785L48 169.946L71.2446 104.429L124.5 84.5C124.5 84.5 129.881 88.1983 133.852 98.7437C141.115 118.032 142.974 128.006 142.974 128.006C142.974 128.006 154.275 140.132 158.712 148.078C163.148 156.025 168.858 169.946 168.858 169.946L194.5 150.5L203 170.746L175.497 206.695L168.858 209.306L110.005 213L68.8974 199.785Z" fill="#2B2727"/>
<path d="M68.8974 199.357L48 169.517L71.2446 104L73.5 139.5L89 163.571L125.5 166.5L142.974 127.578C142.974 127.578 154.275 139.704 158.712 147.65C163.148 155.596 168.858 169.517 168.858 169.517L194.5 150.071L203 170.317L175.497 206.266L168.858 208.877L110.005 212.571L68.8974 199.357Z" fill="#231F1F"/>
</svg>
