<svg width="32" height="32" viewBox="0 0 32 32" fill="none" xmlns="http://www.w3.org/2000/svg">
<rect width="32" height="32" fill="#0D0D0D"/>
<path d="M20.4298 7.53759L20.448 7.59469C20.448 7.59469 20.4482 7.59514 20.4483 7.59543C20.4484 7.59602 20.4487 7.59691 20.4491 7.59811C20.4499 7.60053 20.451 7.60423 20.4526 7.60904C20.4557 7.6187 20.4605 7.63305 20.4667 7.65143C20.479 7.68819 20.4972 7.74119 20.5205 7.80575C20.5669 7.93503 20.6333 8.11009 20.7129 8.29361C20.7927 8.47756 20.8848 8.66778 20.9825 8.82836C21.0824 8.9928 21.1796 9.11151 21.2644 9.16757C21.487 9.31487 21.8219 9.57569 22.0979 9.79679C22.2366 9.90793 22.3617 10.01 22.4521 10.0843C22.4972 10.1215 22.5337 10.1517 22.559 10.1726C22.5716 10.1831 22.5814 10.1913 22.5881 10.1969C22.5914 10.1996 22.594 10.2018 22.5957 10.2032C22.5966 10.2039 22.5972 10.2045 22.5977 10.2048L22.5983 10.2053L22.63 10.2317L22.6371 10.2699L24.9032 20.3336L23.3244 21.7258L20.448 21.37L13.7501 17.9844L9.54028 16.5774L10.7562 10.0415L10.7799 10.0179L10.78 10.0178L10.7801 10.0176C10.7801 10.0176 10.7805 10.0173 10.7808 10.017C10.7814 10.0164 10.7822 10.0156 10.7833 10.0145C10.7855 10.0123 10.7888 10.0092 10.793 10.005C10.8015 9.99671 10.814 9.98452 10.8301 9.96898C10.8622 9.9379 10.9088 9.89325 10.9668 9.83867C11.0828 9.72949 11.245 9.58031 11.4295 9.42066C11.7951 9.10449 12.2607 8.73602 12.6309 8.56225C12.9919 8.39276 13.3394 8.27805 13.5964 8.20566C13.7251 8.16942 13.8315 8.14365 13.906 8.12692C13.9332 8.12081 13.9562 8.11595 13.9745 8.11216L15.486 6L20.4298 7.53759Z" fill="#C87100"/>
<path d="M15.8087 8.56599L14.8026 8.75893L12.0212 10.3989L10.8968 12.5694L22.3184 21.5409L23.3245 19.081L21.7266 15.367L20.4839 15.6564L19.7737 10.3989L17.7616 8.56599L16.6964 9.33774L15.8087 8.56599Z" fill="#B53503"/>
<path d="M19.8859 10.3464L20.5845 15.5186L21.7979 15.2362L23.4516 19.08L22.3695 21.7258L10.75 12.5988L11.9147 10.3504L11.9295 10.3219L14.7578 8.65436L14.7789 8.65025L15.8446 8.44589L16.7033 9.19239L17.7705 8.41936L19.8859 10.3464ZM14.8472 8.86349L12.1129 10.4757L11.0435 12.54L22.2672 21.356L23.1972 19.082L21.6552 15.4978L20.3832 15.7941L19.6615 10.4513L17.7527 8.71252L16.6894 9.48295L15.7726 8.68599L14.8472 8.86349Z" fill="#B53503"/>
<path d="M9.52791 24.1192L7 20.5096L9.81185 12.5841L16.254 10.1734C16.254 10.1734 16.905 10.6208 17.3853 11.8964C18.2639 14.2296 18.4888 15.4362 18.4888 15.4362C18.4888 15.4362 19.8559 16.9031 20.3926 17.8643C20.9292 18.8255 21.6199 20.5096 21.6199 20.5096L24.7218 18.1573L25.75 20.6064L22.423 24.9551L21.6199 25.2709L14.5006 25.7177L9.52791 24.1192Z" fill="#2B2727"/>
<path d="M9.52791 24.0673L7 20.4577L9.81185 12.5322L10.0847 16.8266L11.9597 19.7385L16.375 20.0927L18.4888 15.3844C18.4888 15.3844 19.8559 16.8513 20.3926 17.8125C20.9292 18.7737 21.6199 20.4577 21.6199 20.4577L24.7218 18.1054L25.75 20.5545L22.423 24.9032L21.6199 25.219L14.5006 25.6659L9.52791 24.0673Z" fill="#231F1F"/>
</svg>
