<svg width="64" height="64" viewBox="0 0 64 64" fill="none" xmlns="http://www.w3.org/2000/svg">
<rect width="64" height="64" fill="#0D0D0D"/>
<path d="M39.755 15.6777L39.7925 15.7957C39.7925 15.7957 39.793 15.7966 39.7931 15.7972C39.7935 15.7984 39.7941 15.8003 39.7949 15.8028C39.7965 15.8078 39.7988 15.8154 39.8021 15.8253C39.8086 15.8453 39.8184 15.875 39.8312 15.9129C39.8568 15.9889 39.8944 16.0985 39.9424 16.2319C40.0384 16.4991 40.1756 16.8608 40.3401 17.2401C40.5049 17.6203 40.6954 18.0134 40.8971 18.3453C41.1038 18.6851 41.3046 18.9305 41.4798 19.0463C41.94 19.3507 42.6321 19.8898 43.2024 20.3467C43.4891 20.5764 43.7476 20.7874 43.9344 20.9409C44.0277 21.0177 44.1031 21.0801 44.1553 21.1234C44.1814 21.1451 44.2017 21.162 44.2155 21.1735C44.2224 21.1792 44.2277 21.1836 44.2313 21.1866C44.233 21.1881 44.2344 21.1892 44.2353 21.19L44.2366 21.1911L44.3021 21.2456L44.3168 21.3245L49 42.1228L45.7372 45L39.7925 44.2647L25.9502 37.2678L17.25 34.36L19.7628 20.8524L19.8119 20.8037L19.8122 20.8035L19.8124 20.803C19.8124 20.803 19.8132 20.8024 19.8138 20.8018C19.8149 20.8007 19.8167 20.7988 19.819 20.7966C19.8235 20.7921 19.8303 20.7856 19.839 20.777C19.8565 20.7599 19.8823 20.7347 19.9155 20.7026C19.9819 20.6383 20.0782 20.5461 20.1981 20.4332C20.4379 20.2076 20.773 19.8993 21.1545 19.5694C21.9099 18.9159 22.8722 18.1544 23.6372 17.7953C24.3834 17.445 25.1016 17.208 25.6327 17.0584C25.8986 16.9835 26.1185 16.9302 26.2726 16.8956C26.3288 16.883 26.3763 16.873 26.4141 16.8651L29.5378 12.5L39.755 15.6777Z" fill="#C87100"/>
<path d="M30.2046 17.803L28.1254 18.2018L22.3771 21.591L20.0534 26.0768L43.6581 44.6179L45.7372 39.5341L42.435 31.8584L39.8666 32.4565L38.399 21.591L34.2406 17.803L32.0392 19.398L30.2046 17.803Z" fill="#B53503"/>
<path d="M38.6309 21.4826L40.0747 32.1718L42.5824 31.5881L46 39.532L43.7636 45L19.75 26.1375L22.1571 21.4909L22.1877 21.432L28.0328 17.9857L28.0765 17.9772L30.2789 17.5548L32.0535 19.0976L34.259 17.5L38.6309 21.4826ZM28.2176 18.4179L22.5666 21.7498L20.3565 26.016L43.5522 44.2357L45.4742 39.5362L42.2874 32.1288L39.6586 32.7412L38.167 21.6995L34.2223 18.1059L32.0248 19.6981L30.1301 18.051L28.2176 18.4179Z" fill="#B53503"/>
<path d="M17.2243 49.9463L12 42.4864L17.8112 26.1072L31.125 21.125C31.125 21.125 32.4703 22.0496 33.463 24.6859C35.2787 29.5079 35.7436 32.0016 35.7436 32.0016C35.7436 32.0016 38.5689 35.0331 39.678 37.0196C40.7871 39.0061 42.2144 42.4864 42.2144 42.4864L48.625 37.625L50.75 42.6865L43.8743 51.6738L42.2144 52.3264L27.5013 53.25L17.2243 49.9463Z" fill="#2B2727"/>
<path d="M17.2243 49.8392L12 42.3792L17.8112 26L18.375 34.875L22.25 40.8928L31.375 41.625L35.7436 31.8944C35.7436 31.8944 38.5689 34.9259 39.678 36.9124C40.7871 38.8989 42.2144 42.3792 42.2144 42.3792L48.625 37.5178L50.75 42.5793L43.8743 51.5666L42.2144 52.2192L27.5013 53.1428L17.2243 49.8392Z" fill="#231F1F"/>
</svg>
